<?xml version="1.0" encoding="iso-8859-1"?>
<!-- Generator: Adobe Illustrator 19.0.0, SVG Export Plug-In . SVG Version: 6.00 Build 0)  -->
<svg version="1.1" id="Layer_1" xmlns="http://www.w3.org/2000/svg" xmlns:xlink="http://www.w3.org/1999/xlink" x="0px" y="0px"
	 viewBox="0 0 512 512" style="enable-background:new 0 0 512 512;" xml:space="preserve">
<g>
	<g>
		<path d="M437.019,74.981C388.668,26.629,324.38,0,256,0S123.332,26.629,74.98,74.981C26.629,123.333,0,187.62,0,256
			s26.629,132.668,74.98,181.019C123.332,485.371,187.62,512,256,512s132.668-26.629,181.019-74.981
			C485.371,388.668,512,324.38,512,256S485.371,123.333,437.019,74.981z M80.45,91.204l96.307,96.307
			c-11.019,12.732-19.025,28.136-22.907,45.094l-134.622-20.69C27.524,166.831,48.521,125.163,80.45,91.204z M256,166.421
			c49.394,0,89.579,40.184,89.579,89.579S305.394,345.579,256,345.579c-49.393,0-89.579-40.184-89.579-89.579
			S206.606,166.421,256,166.421z M256,496.792c-64.318,0-124.786-25.046-170.266-70.526S15.208,320.318,15.208,256
			c0-9.786,0.588-19.482,1.732-29.051l134.608,20.69c-0.219,2.76-0.334,5.547-0.334,8.361c0,57.779,47.007,104.787,104.787,104.787
			c26.159,0,50.108-9.636,68.488-25.542l96.307,96.306C375.993,473.674,317.777,496.792,256,496.792z M431.549,420.795
			l-96.307-96.306c11.019-12.731,19.026-28.136,22.908-45.095l134.622,20.691C484.477,345.169,463.48,386.836,431.549,420.795z
			 M360.452,264.361c0.219-2.76,0.334-5.547,0.334-8.361c0-57.779-47.007-104.787-104.787-104.787
			c-26.159,0-50.109,9.636-68.489,25.543L91.203,80.45C136.007,38.326,194.224,15.208,256,15.208
			c64.317,0,124.786,25.046,170.266,70.527c45.48,45.479,70.526,105.948,70.526,170.265c0,9.786-0.588,19.482-1.732,29.051
			L360.452,264.361z"/>
	</g>
</g>
<g>
	<g>
		<path d="M256,212.72c-23.865,0-43.281,19.415-43.281,43.281c0,23.865,19.415,43.28,43.281,43.28
			c23.864,0,43.28-19.415,43.28-43.28C299.28,232.137,279.864,212.72,256,212.72z M256,284.073
			c-15.48,0-28.073-12.593-28.073-28.072S240.52,227.928,256,227.928c15.479,0,28.072,12.593,28.072,28.073
			C284.072,271.481,271.479,284.073,256,284.073z"/>
	</g>
</g>
<g>
	<g>
		<path d="M60.431,333.852l-14.13,5.622c7.077,17.79,16.46,34.662,27.889,50.145l12.235-9.031
			C75.772,366.154,67.026,350.43,60.431,333.852z"/>
	</g>
</g>
<g>
	<g>
		<path d="M107.242,404.76c-2.896-2.897-5.738-5.908-8.452-8.949l-11.35,10.12c2.905,3.258,5.948,6.482,9.048,9.581
			c42.608,42.607,99.256,66.072,159.512,66.072v-15.208C199.807,466.376,146.976,444.493,107.242,404.76z"/>
	</g>
</g>
<g>
</g>
<g>
</g>
<g>
</g>
<g>
</g>
<g>
</g>
<g>
</g>
<g>
</g>
<g>
</g>
<g>
</g>
<g>
</g>
<g>
</g>
<g>
</g>
<g>
</g>
<g>
</g>
<g>
</g>
</svg>
